<?xml version="1.0" encoding="UTF-8"?>
<svg xmlns="http://www.w3.org/2000/svg" id="Layer_1" data-name="Layer 1" viewBox="0 0 24 24" width="512" height="512"><path d="M24,5c0-2.206-1.794-4-4-4s-4,1.794-4,4c0,1.86,1.277,3.428,3,3.873v6.127c0,1.654-1.346,3-3,3h-3.369l2.203-2.203c.391-.391,.391-1.023,0-1.414s-1.023-.391-1.414,0l-2.541,2.541c-.549,.548-.879,1.076-.879,2.076s.297,1.585,.879,2.167l2.541,2.541c.195,.195,.451,.293,.707,.293s.512-.098,.707-.293c.391-.391,.391-1.023,0-1.414l-2.293-2.293h3.459c2.757,0,5-2.243,5-5v-6.127c1.723-.445,3-2.013,3-3.873Zm-4,2c-1.103,0-2-.897-2-2s.897-2,2-2,2,.897,2,2-.897,2-2,2Zm-6.796,.122c.567-.567,.879-1.32,.879-2.122s-.312-1.555-.879-2.121L10.663,.338c-.391-.391-1.023-.391-1.414,0s-.391,1.023,0,1.414l2.247,2.248h-3.496c-2.757,0-5,2.243-5,5v6.127c-1.723,.445-3,2.013-3,3.873,0,2.206,1.794,4,4,4s4-1.794,4-4c0-1.86-1.277-3.428-3-3.873v-6.127c0-1.654,1.346-3,3-3h3.497l-2.248,2.248c-.391,.391-.391,1.023,0,1.414,.195,.195,.451,.293,.707,.293s.512-.098,.707-.293l2.541-2.54Zm-7.204,11.878c0,1.103-.897,2-2,2s-2-.897-2-2,.897-2,2-2,2,.897,2,2Z"/></svg>
