<svg width="28" height="28" viewBox="0 0 28 28" fill="none" xmlns="http://www.w3.org/2000/svg">
<path fill-rule="evenodd" clip-rule="evenodd" d="M4.3232 1C2.49183 1 1 2.49173 1 4.3231V23.6768C1 25.5082 2.49183 27 4.3232 27H23.6768C25.5082 27 27 25.5082 27 23.6768V4.3231C27 2.49173 25.5082 1 23.6768 1H4.3232ZM4.3232 2.11719H23.6768C24.9086 2.11719 25.8828 3.09134 25.8828 4.3231V23.6768C25.8828 24.9086 24.9086 25.8828 23.6768 25.8828H4.3232C3.09144 25.8828 2.11719 24.9086 2.11719 23.6768V4.3231C2.11719 3.09134 3.09144 2.11719 4.3232 2.11719Z" fill="#8D8584"/>
<path fill-rule="evenodd" clip-rule="evenodd" d="M5.70589 18.9712C4.64053 18.9712 3.76489 19.8468 3.76489 20.9122C3.76489 21.9775 4.64053 22.8532 5.70589 22.8532C6.77124 22.8532 7.64688 21.9775 7.64688 20.9122C7.64688 19.8468 6.77124 18.9712 5.70589 18.9712ZM5.70589 20.0884C6.16747 20.0884 6.52969 20.4506 6.52969 20.9122C6.52969 21.3738 6.16747 21.736 5.70589 21.736C5.24431 21.736 4.88208 21.3738 4.88208 20.9122C4.88208 20.4506 5.24431 20.0884 5.70589 20.0884Z" fill="#8D8584"/>
<path fill-rule="evenodd" clip-rule="evenodd" d="M5.70589 12.0591C4.64053 12.0591 3.76489 12.9347 3.76489 14.0001C3.76489 15.0654 4.64053 15.9411 5.70589 15.9411C6.77124 15.9411 7.64688 15.0654 7.64688 14.0001C7.64688 12.9347 6.77124 12.0591 5.70589 12.0591ZM5.70589 13.1763C6.16747 13.1763 6.52969 13.5385 6.52969 14.0001C6.52969 14.4617 6.16747 14.8239 5.70589 14.8239C5.24431 14.8239 4.88208 14.4617 4.88208 14.0001C4.88208 13.5385 5.24431 13.1763 5.70589 13.1763Z" fill="#8D8584"/>
<path fill-rule="evenodd" clip-rule="evenodd" d="M5.70589 5.14746C4.64053 5.14746 3.76489 6.0231 3.76489 7.08846C3.76489 8.15381 4.64053 9.02945 5.70589 9.02945C6.77124 9.02945 7.64688 8.15381 7.64688 7.08846C7.64688 6.0231 6.77124 5.14746 5.70589 5.14746ZM5.70589 6.26465C6.16747 6.26465 6.52969 6.62687 6.52969 7.08846C6.52969 7.55005 6.16747 7.91226 5.70589 7.91226C5.24431 7.91226 4.88208 7.55005 4.88208 7.08846C4.88208 6.62687 5.24431 6.26465 5.70589 6.26465Z" fill="#8D8584"/>
<path fill-rule="evenodd" clip-rule="evenodd" d="M11.2353 18.9712C10.1697 18.9712 9.29443 19.8465 9.29443 20.9121V20.9123C9.29443 21.9779 10.1697 22.8532 11.2353 22.8532H22.2946C23.3602 22.8532 24.2355 21.9779 24.2355 20.9123V20.9121C24.2355 19.8465 23.3602 18.9712 22.2946 18.9712H11.2353ZM11.2353 20.0884H22.2946C22.7606 20.0884 23.1183 20.4461 23.1183 20.9121V20.9123C23.1183 21.3783 22.7606 21.736 22.2946 21.736H11.2353C10.7693 21.736 10.4116 21.3783 10.4116 20.9123V20.9121C10.4116 20.4461 10.7693 20.0884 11.2353 20.0884Z" fill="#8D8584"/>
<path fill-rule="evenodd" clip-rule="evenodd" d="M11.2353 12.0591C10.1697 12.0591 9.29443 12.9345 9.29443 14.0001V14.0002C9.29443 15.0658 10.1697 15.9411 11.2353 15.9411H22.2945C23.3601 15.9411 24.2355 15.0658 24.2355 14.0002V14.0001C24.2355 12.9345 23.3601 12.0591 22.2945 12.0591L11.2353 12.0591ZM11.2353 13.1763H22.2945C22.7605 13.1763 23.1183 13.5341 23.1183 14.0001V14.0002C23.1183 14.4662 22.7605 14.8239 22.2945 14.8239H11.2353C10.7693 14.8239 10.4116 14.4662 10.4116 14.0002V14.0001C10.4116 13.5341 10.7693 13.1763 11.2353 13.1763V13.1763Z" fill="#8D8584"/>
<path fill-rule="evenodd" clip-rule="evenodd" d="M11.2353 5.14746C10.1697 5.14746 9.29443 6.02275 9.29443 7.08836V7.08856C9.29443 8.15416 10.1697 9.02945 11.2353 9.02945H22.2946C23.3602 9.02945 24.2355 8.15416 24.2355 7.08856V7.08836C24.2355 6.02275 23.3602 5.14746 22.2946 5.14746H11.2353ZM11.2353 6.26465H22.2946C22.7606 6.26465 23.1183 6.62235 23.1183 7.08836V7.08856C23.1183 7.55456 22.7606 7.91227 22.2946 7.91227H11.2353C10.7693 7.91227 10.4116 7.55456 10.4116 7.08856V7.08836C10.4116 6.62235 10.7693 6.26465 11.2353 6.26465Z" fill="#8D8584"/>
</svg>
