<?xml version="1.0" encoding="UTF-8"?>
<svg xmlns="http://www.w3.org/2000/svg" id="Layer_1" data-name="Layer 1" viewBox="0 0 24 24" width="512" height="512"><path d="M24,13V11H19.931a7.957,7.957,0,0,0-.569-2.129l3.52-2.049L21.876,5.094l-3.53,2.054a8.092,8.092,0,0,0-1.5-1.5l2.048-3.52L17.162,1.121,15.119,4.634A7.956,7.956,0,0,0,13,4.069V0H11V4.069a7.94,7.94,0,0,0-2.106.559L6.854,1.121,5.126,2.127,7.169,5.639a8.02,8.02,0,0,0-1.51,1.5L2.14,5.094,1.134,6.822,4.642,8.864A7.928,7.928,0,0,0,4.069,11H0v2H4.069a7.985,7.985,0,0,0,.569,2.129l-3.5,2.036,1,1.729,3.508-2.042a8.045,8.045,0,0,0,1.492,1.492L5.1,21.865l1.728,1.006L8.868,19.36A7.934,7.934,0,0,0,11,19.931V24h2V19.931a7.944,7.944,0,0,0,2.144-.577l2.045,3.517,1.729-1.006-2.053-3.529a8.038,8.038,0,0,0,1.486-1.491l3.518,2.049,1.006-1.729-3.51-2.044A7.961,7.961,0,0,0,19.931,13ZM12,18a6,6,0,1,1,6-6A6.006,6.006,0,0,1,12,18Zm2.252-2.7A4,4,0,1,1,13.929,8.5,3.926,3.926,0,0,0,12,11.818,4.361,4.361,0,0,0,14.252,15.3Z"/></svg>
