<svg width="19" height="20" viewBox="0 0 19 20" fill="none" xmlns="http://www.w3.org/2000/svg">
<path d="M17.548 5.83433L11.427 0.702375C10.31 -0.234625 8.68902 -0.233625 7.57202 0.702375L1.45105 5.83433C0.52405 6.60333 0 7.13635 0 9.15135V15.5013C0 17.7913 1.21 19.0013 3.5 19.0013H15.5C17.79 19.0013 19 17.7913 19 15.5013V9.15135C18.999 7.13735 18.475 6.60433 17.548 5.83433ZM17.999 15.5013C17.999 17.2303 17.228 18.0013 15.499 18.0013H3.49902C1.77002 18.0013 0.999023 17.2303 0.999023 15.5013V9.15135C0.999023 7.50835 1.31799 7.24335 2.08899 6.60435L8.21399 1.46934C8.58599 1.15734 9.04302 1.00133 9.49902 1.00133C9.95502 1.00133 10.4121 1.15734 10.7841 1.46934L16.9091 6.60435C17.6801 7.24435 17.999 7.50835 17.999 9.15135V15.5013ZM11.65 12.4453C12.073 11.8763 12.332 11.1793 12.332 10.4173C12.332 8.53334 10.8 7.00035 8.91602 7.00035C7.03202 7.00035 5.49902 8.53334 5.49902 10.4173C5.49902 12.3013 7.03202 13.8343 8.91602 13.8343C9.67802 13.8343 10.374 13.5753 10.943 13.1523L12.645 14.8544C12.743 14.9524 12.871 15.0003 12.999 15.0003C13.127 15.0003 13.255 14.9514 13.353 14.8544C13.548 14.6594 13.548 14.3423 13.353 14.1473L11.65 12.4453ZM6.49902 10.4183C6.49902 9.08532 7.58302 8.00133 8.91602 8.00133C10.248 8.00133 11.332 9.08532 11.332 10.4183C11.332 11.7513 10.248 12.8353 8.91602 12.8353C7.58302 12.8343 6.49902 11.7503 6.49902 10.4183Z" fill="#CDFF48"/>
</svg>
