<?xml version="1.0" encoding="UTF-8"?>
<svg xmlns="http://www.w3.org/2000/svg" id="Layer_1" data-name="Layer 1" viewBox="0 0 24 24">
  <path d="m14,13h4v2h-4v-2Zm-3.922-7.291l2.422,10.291h-2.053l-.706-3h-3.481l-.706,3h-2.053l2.439-10.362c.287-1.237,1.625-2.008,2.937-1.458.627.263,1.049.866,1.202,1.528Zm-.809,5.291l-1.156-4.91c-.012-.053-.059-.09-.113-.09s-.101.037-.113.09l-1.156,4.91h2.539ZM24,3v17h-6.853l-3.846,3.18c-.362.322-.825.485-1.292.485-.476,0-.956-.169-1.338-.509l-3.748-3.156H0V3C0,1.346,1.346,0,3,0h18c1.654,0,3,1.346,3,3Zm-2,0c0-.552-.448-1-1-1H3c-.551,0-1,.448-1,1v15h5.654l4.326,3.645,4.449-3.645h5.571V3Zm-8,8h6v-2h-6v2Zm0-4h6v-2h-6v2Z"/>
</svg>
