<svg width="20" height="20" viewBox="0 0 20 20" fill="none" xmlns="http://www.w3.org/2000/svg">
<path d="M19.725 18.3126L16.015 14.6326C17.4551 12.837 18.1525 10.5578 17.9638 8.26385C17.7751 5.96985 16.7146 3.83533 15.0005 2.2992C13.2863 0.763058 11.0488 -0.0579377 8.74788 0.00502273C6.447 0.0679831 4.25768 1.01011 2.6301 2.63769C1.00252 4.26527 0.0603881 6.45459 -0.00257234 8.75548C-0.0655327 11.0564 0.755463 13.2939 2.2916 15.0081C3.82774 16.7222 5.96226 17.7827 8.25626 17.9714C10.5503 18.1601 12.8294 17.4627 14.625 16.0226L18.305 19.7026C18.3979 19.7963 18.5085 19.8707 18.6304 19.9214C18.7522 19.9722 18.8829 19.9984 19.015 19.9984C19.147 19.9984 19.2777 19.9722 19.3995 19.9214C19.5214 19.8707 19.632 19.7963 19.725 19.7026C19.9052 19.5161 20.0059 19.2669 20.0059 19.0076C20.0059 18.7482 19.9052 18.499 19.725 18.3126ZM9.01496 16.0226C7.63049 16.0226 6.27711 15.612 5.12597 14.8428C3.97482 14.0737 3.07761 12.9804 2.5478 11.7013C2.01799 10.4223 1.87936 9.01479 2.14946 7.65692C2.41956 6.29905 3.08624 5.05177 4.06521 4.0728C5.04418 3.09384 6.29146 2.42715 7.64933 2.15706C9.00719 1.88696 10.4147 2.02558 11.6937 2.5554C12.9728 3.08521 14.0661 3.98242 14.8352 5.13356C15.6044 6.2847 16.015 7.63808 16.015 9.02255C16.015 10.8791 15.2775 12.6595 13.9647 13.9723C12.6519 15.2851 10.8715 16.0226 9.01496 16.0226Z" fill="#FAFEFF"/>
</svg>
